<svg xmlns="http://www.w3.org/2000/svg" version="1.1" width="155" height="148">
<path d="M0 0 C2 2 2 2 2.65625 5.06640625 C1.65290965 11.08047606 -2.15462283 13.90414111 -6.5 17.9375 C-8.01745505 19.37448842 -9.53365134 20.81280683 -11.04882812 22.25219727 C-12.36588542 23.50146484 -13.68294271 24.75073242 -15 26 C-14.41305359 25.9986908 -13.82610718 25.99738159 -13.22137451 25.99603271 C1.98003665 25.96707206 17.18026544 25.99180479 32.38037109 26.20751953 C34.66251439 26.23629021 36.94476775 26.25721458 39.22705078 26.27099609 C42.58416937 26.2922886 45.94010789 26.33871981 49.296875 26.390625 C50.3165033 26.39185364 51.33613159 26.39308228 52.38665771 26.39434814 C59.33111393 26.5395155 59.33111393 26.5395155 62.67675781 28.84277344 C64 31 64 31 63.875 34.125 C63 37 63 37 61 39 C58.53289357 39.21715601 56.17450218 39.3113626 53.70458984 39.31884766 C52.95327286 39.32889328 52.20195587 39.3389389 51.4278717 39.34928894 C48.93890159 39.38023551 46.45003957 39.39718765 43.9609375 39.4140625 C42.23742739 39.43276495 40.51392652 39.45233766 38.79043579 39.4727478 C34.24981119 39.52417265 29.70915686 39.56374278 25.168396 39.60089111 C20.53666774 39.64086604 15.90506422 39.691988 11.2734375 39.7421875 C2.18237916 39.83906927 -6.90874945 39.92343467 -16 40 C-15.45472656 40.51385254 -14.90945312 41.02770508 -14.34765625 41.55712891 C-11.88276495 43.89719559 -9.44146789 46.26051534 -7 48.625 C-5.71222656 49.83736328 -5.71222656 49.83736328 -4.3984375 51.07421875 C-3.58632813 51.86699219 -2.77421875 52.65976563 -1.9375 53.4765625 C-1.18339844 54.19924316 -0.42929687 54.92192383 0.34765625 55.66650391 C2.45482676 58.64232183 2.39336127 60.42717338 2 64 C0.9375 65.9375 0.9375 65.9375 -1 67 C-6.64611798 66.92553809 -9.31842476 65.38036668 -13.18893433 61.59344482 C-13.78400787 60.97995178 -14.37908142 60.36645874 -14.9921875 59.734375 C-15.6235965 59.10396301 -16.25500549 58.47355103 -16.9055481 57.82403564 C-18.23202847 56.49288941 -19.55116432 55.15438856 -20.86328125 53.80908203 C-22.87201898 51.7530512 -24.90619178 49.7250729 -26.9453125 47.69921875 C-28.23336442 46.40001547 -29.51987732 45.09928419 -30.8046875 43.796875 C-31.41190643 43.19147888 -32.01912537 42.58608276 -32.64474487 41.96234131 C-37.88762592 36.54031595 -37.88762592 36.54031595 -38 32 C-37.06640625 30.0078125 -37.06640625 30.0078125 -35.5625 28.125 C-34.85287109 27.20074219 -34.85287109 27.20074219 -34.12890625 26.2578125 C-32.2507416 24.26592412 -30.33855944 22.53850382 -28.26171875 20.76171875 C-23.18742062 16.38944021 -18.77714668 11.48451164 -14.29296875 6.52148438 C-13.66519531 5.83763672 -13.03742187 5.15378906 -12.390625 4.44921875 C-11.83407227 3.83393311 -11.27751953 3.21864746 -10.70410156 2.5847168 C-7.14814645 -0.72211768 -4.66458603 -1.47302717 0 0 Z " fill="#141B33" transform="translate(61,43)"/>
</svg>