<svg width="500" height="500" viewBox="0 0 500 500" fill="none" xmlns="http://www.w3.org/2000/svg">
<g opacity="0.25">
<g opacity="0.41">
<path d="M474.612 303.531C475.032 296.304 474.844 289.044 474.029 281.856C470.202 248.079 452.874 216.229 427.369 193.756C418.27 185.738 407.917 178.556 401.995 167.973C392.023 150.15 392.778 129.667 380.402 112.07C368.011 94.4515 349.954 80.7125 329.59 73.6565C268.874 52.6185 183.869 86.8735 191.523 160.027C191.55 160.289 191.58 160.671 191.613 161.154C192.631 176.349 180.704 189.125 165.526 189.485C109.507 190.814 61.2869 234.005 50.9689 288.714C44.3329 323.898 55.1989 362.463 80.9359 387.353C100.148 405.932 125.924 416.139 151.714 423.153C203.422 437.216 257.836 440.163 311.152 434.786C361.059 429.753 413.702 415.405 445.979 377.009C463.196 356.525 473.06 330.259 474.612 303.531Z" fill="#53D0F7"/>
</g>
<g opacity="0.31">
<path d="M451.872 124.468C454.376 113.865 447.81 103.24 437.207 100.736C426.604 98.2326 415.979 104.798 413.476 115.401C410.972 126.004 417.538 136.629 428.141 139.133C438.744 141.637 449.369 135.071 451.872 124.468Z" fill="#53D0F7"/>
</g>
<g opacity="0.31">
<path d="M397.969 100.181C401.757 100.181 404.828 97.11 404.828 93.3219C404.828 89.5338 401.757 86.4629 397.969 86.4629C394.181 86.4629 391.11 89.5338 391.11 93.3219C391.11 97.11 394.181 100.181 397.969 100.181Z" fill="#53D0F7"/>
</g>
<g opacity="0.31">
<path d="M163.607 87.0236C164.773 82.0836 161.714 77.1333 156.774 75.9669C151.834 74.8004 146.884 77.8595 145.718 82.7995C144.551 87.7395 147.61 92.6898 152.55 93.8562C157.49 95.0227 162.44 91.9637 163.607 87.0236Z" fill="#53D0F7"/>
</g>
<g opacity="0.31">
<path d="M48.677 439.159C60.2347 439.159 69.604 429.789 69.604 418.232C69.604 406.674 60.2347 397.305 48.677 397.305C37.1193 397.305 27.75 406.674 27.75 418.232C27.75 429.789 37.1193 439.159 48.677 439.159Z" fill="#53D0F7"/>
</g>
</g>
<g opacity="0.25">
<g opacity="0.47">
<path d="M10.9097 314.955C4.59774 316.906 1.06174 323.604 3.01174 329.917C4.96274 336.229 13.0167 344.151 19.3287 342.2C25.6407 340.249 22.9247 330.254 24.2667 323.785C26.1377 314.763 17.2217 313.005 10.9097 314.955Z" fill="#53D0F7"/>
</g>
<g opacity="0.47">
<path d="M82.422 117.103C77.691 108.285 66.707 104.972 57.888 109.703C49.07 114.434 39.63 128.706 44.361 137.524C49.092 146.342 63.163 139.405 73.17 139.522C87.126 139.686 87.153 125.921 82.422 117.103Z" fill="#53D0F7"/>
</g>
<g opacity="0.47">
<path d="M472.575 364.861C478.834 354.907 480.403 342.557 479.1 330.871C477.805 319.259 474.247 307.075 469.278 296.514C464.568 286.505 457.751 277.576 455.808 266.427C453.241 251.697 459.964 237.538 461.525 223.089C464.632 194.324 445.193 168.979 421.077 155.293C401.49 144.177 378.527 140.006 356.008 140.303C335.74 140.57 315.508 144.166 295.868 149.001C276.941 153.66 258.436 159.8 238.597 157.863C222.097 156.252 207.237 149.399 191.871 144.289C155.186 132.089 110.747 130.368 77.2009 148.941C55.6719 160.861 40.6029 180.218 33.9199 201.03C29.0249 216.274 27.5729 233.802 31.1599 249.229C35.1909 266.564 42.6379 281.834 40.6719 300.094C39.0579 315.078 33.5539 329.686 34.0399 344.886C34.4579 357.95 39.3519 371.015 46.9599 381.581C47.4519 382.263 47.9749 382.936 48.5639 383.534H451.184C459.613 378.989 467.48 372.964 472.575 364.861Z" fill="#53D0F7"/>
</g>
<g opacity="0.81">
<path d="M420.887 354.887C422.313 343.785 418.974 333.473 419.412 322.683C420.254 301.934 439.316 287.609 445.958 268.957C454.369 245.338 453.965 218.872 443.751 195.857C438.828 184.765 431.637 174.457 421.817 167.328C406.678 156.338 386.842 153.928 368.187 155.322C340.423 157.397 311.127 168.944 283.212 165.795C267.808 164.057 263.104 148.039 255.148 137.473C246.15 125.523 233.896 116.136 220.349 109.888C195.397 98.3799 165.451 97.2909 139.949 107.726C112.722 118.866 88.991 146.072 90.551 176.84C91.273 191.074 97.203 205.211 94.458 219.197C91.012 236.749 77.247 252.743 67.272 267.044C56.256 282.838 49.587 301.672 48.279 320.887C46.796 342.673 52.223 364.873 63.562 383.534H411.317C416.363 374.745 419.596 364.935 420.887 354.887Z" fill="#53D0F7"/>
</g>
</g>
<path d="M447.729 387.823H52.2695C51.3965 387.823 50.6885 387.115 50.6885 386.242C50.6885 385.369 51.3965 384.662 52.2695 384.662H447.729C448.602 384.662 449.31 385.37 449.31 386.242C449.31 387.115 448.602 387.823 447.729 387.823Z" fill="#233863"/>
<path d="M210.963 67.0692C213.159 67.0692 214.939 65.2891 214.939 63.0932C214.939 60.8973 213.159 59.1172 210.963 59.1172C208.767 59.1172 206.987 60.8973 206.987 63.0932C206.987 65.2891 208.767 67.0692 210.963 67.0692Z" fill="#FFB44F"/>
<path d="M46.3004 40.6927C46.3004 42.1257 45.1384 43.2877 43.7054 43.2877C42.2724 43.2877 41.1104 42.1257 41.1104 40.6927C41.1104 39.2597 42.2724 38.0977 43.7054 38.0977C45.1384 38.0977 46.3004 39.2597 46.3004 40.6927Z" fill="#FFB44F"/>
<path d="M472.234 162.963C473.667 162.963 474.829 161.802 474.829 160.368C474.829 158.935 473.667 157.773 472.234 157.773C470.8 157.773 469.639 158.935 469.639 160.368C469.639 161.802 470.8 162.963 472.234 162.963Z" fill="#FFB44F"/>
<path d="M400.564 95.9173C400.564 97.3503 399.402 98.5123 397.969 98.5123C396.536 98.5123 395.374 97.3503 395.374 95.9173C395.374 94.4843 396.536 93.3223 397.969 93.3223C399.402 93.3223 400.564 94.4843 400.564 95.9173Z" fill="#FFB44F"/>
<path d="M59.856 81.1829C59.856 82.8679 58.49 84.2349 56.804 84.2349C55.119 84.2349 53.752 82.8689 53.752 81.1829C53.752 79.4969 55.118 78.1309 56.804 78.1309C58.489 78.1309 59.856 79.4969 59.856 81.1829Z" fill="#3887FE"/>
<path d="M442.758 78.1321C442.758 79.8181 441.392 81.1841 439.706 81.1841C438.021 81.1841 436.654 79.8181 436.654 78.1321C436.654 76.4471 438.02 75.0801 439.706 75.0801C441.391 75.0801 442.758 76.4461 442.758 78.1321Z" fill="#3887FE"/>
<path d="M81.4938 43.4202C81.4938 44.1632 80.8908 44.7662 80.1478 44.7662C79.4048 44.7662 78.8018 44.1632 78.8018 43.4202C78.8018 42.6772 79.4048 42.0742 80.1478 42.0742C80.8908 42.0742 81.4938 42.6772 81.4938 43.4202Z" fill="#233863"/>
<path d="M260.302 86.4632C260.302 87.2062 259.699 87.8092 258.956 87.8092C258.213 87.8092 257.61 87.2062 257.61 86.4632C257.61 85.7202 258.213 85.1172 258.956 85.1172C259.699 85.1172 260.302 85.7202 260.302 86.4632Z" fill="#233863"/>
<path d="M398.018 59.1175C398.018 59.8605 397.415 60.4635 396.672 60.4635C395.929 60.4635 395.326 59.8605 395.326 59.1175C395.326 58.3745 395.928 57.7715 396.672 57.7715C397.416 57.7715 398.018 58.3745 398.018 59.1175Z" fill="#233863"/>
<g opacity="0.61">
<path d="M369.165 353.244H343.931C343.378 353.244 342.931 352.797 342.931 352.244C342.931 351.691 343.378 351.244 343.931 351.244H369.165C369.718 351.244 370.165 351.691 370.165 352.244C370.165 352.797 369.718 353.244 369.165 353.244Z" fill="white"/>
<path d="M423.158 353.244H384.529C383.976 353.244 383.529 352.797 383.529 352.244C383.529 351.691 383.976 351.244 384.529 351.244H423.158C423.711 351.244 424.158 351.691 424.158 352.244C424.158 352.797 423.711 353.244 423.158 353.244Z" fill="white"/>
<path d="M407.488 362.236H343.931C343.378 362.236 342.931 361.789 342.931 361.236C342.931 360.683 343.378 360.236 343.931 360.236H407.489C408.042 360.236 408.489 360.683 408.489 361.236C408.488 361.789 408.041 362.236 407.488 362.236Z" fill="white"/>
<path d="M386.043 371.229H343.931C343.378 371.229 342.931 370.782 342.931 370.229C342.931 369.676 343.378 369.229 343.931 369.229H386.043C386.596 369.229 387.043 369.676 387.043 370.229C387.043 370.781 386.596 371.229 386.043 371.229Z" fill="white"/>
<path d="M105.566 321.717H40.3525C39.7995 321.717 39.3525 321.27 39.3525 320.717C39.3525 320.164 39.7995 319.717 40.3525 319.717H105.567C106.12 319.717 106.567 320.164 106.567 320.717C106.567 321.27 106.119 321.717 105.566 321.717Z" fill="white"/>
<path d="M105.566 301.566H40.3525C39.7995 301.566 39.3525 301.119 39.3525 300.566C39.3525 300.013 39.7995 299.566 40.3525 299.566H105.567C106.12 299.566 106.567 300.013 106.567 300.566C106.567 301.119 106.119 301.566 105.566 301.566Z" fill="white"/>
<path d="M105.565 311.643H70.4062C69.8533 311.643 69.4062 311.196 69.4062 310.643C69.4062 310.09 69.8533 309.643 70.4062 309.643H105.565C106.118 309.643 106.565 310.09 106.565 310.643C106.565 311.196 106.118 311.643 105.565 311.643Z" fill="white"/>
<path d="M105.565 290.881H70.4062C69.8533 290.881 69.4062 290.434 69.4062 289.881C69.4062 289.328 69.8533 288.881 70.4062 288.881H105.565C106.118 288.881 106.565 289.328 106.565 289.881C106.565 290.434 106.118 290.881 105.565 290.881Z" fill="white"/>
<path d="M105.566 281.264H81.8535C81.3005 281.264 80.8535 280.817 80.8535 280.264C80.8535 279.711 81.3005 279.264 81.8535 279.264H105.566C106.119 279.264 106.566 279.711 106.566 280.264C106.566 280.817 106.119 281.264 105.566 281.264Z" fill="white"/>
</g>
<path d="M397.849 362.734H341.728C340.9 362.734 340.228 362.062 340.228 361.234C340.228 360.406 340.9 359.734 341.728 359.734H396.349V341.123C396.349 340.295 397.021 339.623 397.849 339.623C398.677 339.623 399.349 340.295 399.349 341.123V361.234C399.349 362.063 398.677 362.734 397.849 362.734Z" fill="#233863"/>
<path d="M363.213 275.178H309.726C309.173 275.178 308.726 274.731 308.726 274.178V245.301C308.726 244.749 309.173 244.301 309.726 244.301C310.279 244.301 310.726 244.749 310.726 245.301V273.178H363.213C363.766 273.178 364.213 273.625 364.213 274.178C364.213 274.731 363.766 275.178 363.213 275.178Z" fill="#233863"/>
<path d="M222.4 133.273H206.555C206.002 133.273 205.555 132.825 205.555 132.273V98.2617H179.396C178.843 98.2617 178.396 97.8137 178.396 97.2617C178.396 96.7097 178.843 96.2617 179.396 96.2617H206.555C207.108 96.2617 207.555 96.7097 207.555 97.2617V131.273H222.4C222.953 131.273 223.4 131.721 223.4 132.273C223.4 132.825 222.953 133.273 222.4 133.273Z" fill="#233863"/>
<path d="M197.418 314.333C196.59 314.333 195.918 313.661 195.918 312.833V262.23H166.926C166.098 262.23 165.426 261.558 165.426 260.73V198.629C165.426 197.8 166.098 197.129 166.926 197.129C167.754 197.129 168.426 197.8 168.426 198.629V259.231H197.418C198.246 259.231 198.918 259.903 198.918 260.731V312.834C198.918 313.661 198.246 314.333 197.418 314.333Z" fill="#233863"/>
<path d="M371.544 129.811H287.434C285.288 129.811 283.548 128.475 283.548 126.827V76.6271V70.9781C283.548 69.3301 285.288 67.9941 287.434 67.9941H371.544C373.69 67.9941 375.43 69.3301 375.43 70.9781V126.827C375.43 128.475 373.69 129.811 371.544 129.811Z" fill="#FFB44F"/>
<path d="M283.548 79.7581V70.9781C283.548 69.3301 285.288 67.9941 287.434 67.9941H371.544C373.69 67.9941 375.43 69.3301 375.43 70.9781V79.3751" fill="#3887FE"/>
<path d="M374.875 78.875H283.548V79.875H374.875V78.875Z" fill="white"/>
<path d="M290.18 76.136C289.108 76.136 288.236 75.264 288.236 74.192C288.236 73.12 289.108 72.248 290.18 72.248C291.252 72.248 292.124 73.12 292.124 74.192C292.124 75.264 291.252 76.136 290.18 76.136ZM290.18 73.247C289.659 73.247 289.236 73.671 289.236 74.191C289.236 74.711 289.66 75.135 290.18 75.135C290.7 75.135 291.124 74.711 291.124 74.191C291.124 73.671 290.7 73.247 290.18 73.247Z" fill="white"/>
<path d="M295.599 76.136C294.527 76.136 293.655 75.264 293.655 74.192C293.655 73.12 294.527 72.248 295.599 72.248C296.671 72.248 297.543 73.12 297.543 74.192C297.543 75.264 296.671 76.136 295.599 76.136ZM295.599 73.247C295.078 73.247 294.655 73.671 294.655 74.191C294.655 74.711 295.079 75.135 295.599 75.135C296.12 75.135 296.543 74.711 296.543 74.191C296.543 73.671 296.119 73.247 295.599 73.247Z" fill="white"/>
<path d="M300.916 76.136C299.844 76.136 298.972 75.264 298.972 74.192C298.972 73.12 299.844 72.248 300.916 72.248C301.988 72.248 302.86 73.12 302.86 74.192C302.86 75.264 301.988 76.136 300.916 76.136ZM300.916 73.247C300.395 73.247 299.972 73.671 299.972 74.191C299.972 74.711 300.396 75.135 300.916 75.135C301.436 75.135 301.86 74.711 301.86 74.191C301.86 73.671 301.436 73.247 300.916 73.247Z" fill="white"/>
<path d="M363.024 95.3027H326.185C325.909 95.3027 325.685 95.0787 325.685 94.8027C325.685 94.5267 325.909 94.3027 326.185 94.3027H363.024C363.3 94.3027 363.524 94.5267 363.524 94.8027C363.524 95.0797 363.301 95.3027 363.024 95.3027Z" fill="white"/>
<path d="M344.605 112.248H326.185C325.909 112.248 325.685 112.024 325.685 111.748C325.685 111.472 325.909 111.248 326.185 111.248H344.605C344.881 111.248 345.105 111.472 345.105 111.748C345.105 112.024 344.882 112.248 344.605 112.248Z" fill="white"/>
<path d="M339.94 103.908H326.186C325.91 103.908 325.686 103.684 325.686 103.408C325.686 103.132 325.91 102.908 326.186 102.908H339.94C340.216 102.908 340.44 103.132 340.44 103.408C340.44 103.685 340.216 103.908 339.94 103.908Z" fill="white"/>
<path d="M363.024 103.908H349.271C348.995 103.908 348.771 103.684 348.771 103.408C348.771 103.132 348.995 102.908 349.271 102.908H363.024C363.3 102.908 363.524 103.132 363.524 103.408C363.524 103.685 363.301 103.908 363.024 103.908Z" fill="white"/>
<path d="M319.195 105.446H294.698V88.5801H319.195V105.446ZM295.698 104.446H318.195V89.5801H295.698V104.446Z" fill="white"/>
<path d="M222.556 130.591V118.065C222.556 114.41 226.447 111.447 231.248 111.447H419.363C424.163 111.447 428.055 114.41 428.055 118.065V241.911C428.055 245.566 424.164 248.529 419.363 248.529H231.247C226.447 248.529 222.555 245.566 222.555 241.911V222.033" fill="white"/>
<path d="M428.055 137.052V118.188C428.055 114.485 424.146 111.484 419.325 111.484H230.371C225.549 111.484 221.641 114.486 221.641 118.188V137.913L428.055 137.052Z" fill="#3887FE"/>
<path d="M236.539 129.154C234.474 129.154 232.794 127.474 232.794 125.409C232.794 123.344 234.474 121.664 236.539 121.664C238.603 121.664 240.283 123.344 240.283 125.409C240.283 127.474 238.603 129.154 236.539 129.154ZM236.539 122.665C235.025 122.665 233.794 123.896 233.794 125.41C233.794 126.924 235.025 128.155 236.539 128.155C238.052 128.155 239.283 126.924 239.283 125.41C239.283 123.896 238.052 122.665 236.539 122.665Z" fill="white"/>
<path d="M248.714 129.154C246.649 129.154 244.969 127.474 244.969 125.409C244.969 123.344 246.649 121.664 248.714 121.664C250.778 121.664 252.458 123.344 252.458 125.409C252.458 127.474 250.778 129.154 248.714 129.154ZM248.714 122.665C247.2 122.665 245.969 123.896 245.969 125.41C245.969 126.924 247.2 128.155 248.714 128.155C250.227 128.155 251.458 126.924 251.458 125.41C251.458 123.896 250.227 122.665 248.714 122.665Z" fill="white"/>
<path d="M260.658 129.154C258.594 129.154 256.914 127.474 256.914 125.409C256.914 123.344 258.594 121.664 260.658 121.664C262.723 121.664 264.403 123.344 264.403 125.409C264.403 127.474 262.724 129.154 260.658 129.154ZM260.658 122.665C259.145 122.665 257.914 123.896 257.914 125.41C257.914 126.924 259.145 128.155 260.658 128.155C262.172 128.155 263.403 126.924 263.403 125.41C263.403 123.896 262.172 122.665 260.658 122.665Z" fill="white"/>
<path d="M396.674 172.459H326.344C326.068 172.459 325.844 172.235 325.844 171.959C325.844 171.683 326.068 171.459 326.344 171.459H396.674C396.95 171.459 397.174 171.683 397.174 171.959C397.174 172.235 396.95 172.459 396.674 172.459Z" fill="#243762"/>
<path d="M361.509 204.809H326.344C326.068 204.809 325.844 204.585 325.844 204.309C325.844 204.033 326.068 203.809 326.344 203.809H361.509C361.785 203.809 362.009 204.033 362.009 204.309C362.009 204.586 361.785 204.809 361.509 204.809Z" fill="#243762"/>
<path d="M352.6 188.889H326.344C326.068 188.889 325.844 188.665 325.844 188.389C325.844 188.113 326.068 187.889 326.344 187.889H352.6C352.876 187.889 353.1 188.113 353.1 188.389C353.1 188.665 352.876 188.889 352.6 188.889Z" fill="#243762"/>
<path d="M396.674 188.889H370.417C370.141 188.889 369.917 188.665 369.917 188.389C369.917 188.113 370.141 187.889 370.417 187.889H396.674C396.95 187.889 397.174 188.113 397.174 188.389C397.174 188.665 396.95 188.889 396.674 188.889Z" fill="#243762"/>
<path d="M278.825 233.075C265.709 233.075 254.081 226.716 246.845 216.917V215.631H311.719C304.573 226.158 292.507 233.075 278.825 233.075Z" fill="#FFB44F"/>
<path d="M246.845 216.917C241.975 210.322 239.092 202.17 239.092 193.342C239.092 171.398 256.881 153.609 278.825 153.609C300.769 153.609 318.558 171.398 318.558 193.342C318.558 201.604 316.035 209.275 311.72 215.631H246.846V216.917H246.845Z" fill="#53D0F7"/>
<path d="M315.436 188.276C314.842 187.172 314.013 186.249 313.068 185.418C309.967 182.695 305.606 180.971 304.111 177.139C303.051 174.422 303.756 171.356 303.375 168.464C302.914 164.961 300.833 161.812 298.146 159.518C291.922 154.206 282.69 152.016 274.711 153.708C271.062 154.482 267.616 156.121 264.818 158.602C263.345 159.908 262.069 161.427 261.007 163.083C260.567 163.77 257.657 168.459 258.208 169.097C258.208 169.097 258.546 169.481 259.157 170.056C258.904 170.696 258.716 171.359 258.625 172.046C258.36 174.057 258.851 176.188 258.114 178.078C257.074 180.743 254.042 181.941 251.885 183.835C251.228 184.412 250.652 185.054 250.238 185.822C249.372 187.431 249.364 189.395 249.847 191.157C250.453 193.367 251.832 195.388 253.771 196.61C257.241 198.797 262.834 199.06 266.829 199.049C267.555 199.047 268.324 199.004 268.928 198.601C269.782 198.031 270.067 196.907 270.102 195.881C270.191 193.255 269.278 190.646 268.079 188.345C268.036 188.263 267.989 188.176 267.909 188.129C267.774 188.049 267.604 188.108 267.457 188.161C266.091 188.659 270.95 178.619 270.732 175.786C271.826 175.929 272.97 175.981 274.168 175.895C278.944 178.213 283.074 177.157 285.923 175.632C286.015 179.267 287.273 183.12 290.818 184.678C291.234 182.629 293.476 181.197 295.541 181.523C295.787 181.562 296.026 181.626 296.259 181.708C297.978 182.31 299.282 184.006 299.456 185.839C299.523 186.545 299.423 187.25 299.207 187.921C298.785 189.229 297.89 190.397 296.715 191.125C294.937 192.225 292.641 192.355 290.676 191.639C290.464 191.562 290.219 191.478 290.025 191.592C289.91 191.66 289.842 191.784 289.78 191.903C288.056 195.212 286.744 198.964 286.871 202.741C286.921 204.216 287.331 205.833 288.559 206.652C289.428 207.232 290.533 207.294 291.578 207.297C291.604 207.297 291.632 207.297 291.658 207.297C297.397 207.309 305.389 206.92 310.356 203.789C313.144 202.032 315.128 199.126 315.999 195.948C316.693 193.414 316.681 190.59 315.436 188.276Z" fill="#243762"/>
<path d="M288.558 206.652C287.33 205.833 286.92 204.216 286.87 202.741C286.742 198.964 288.055 195.212 289.779 191.903C289.841 191.785 289.909 191.66 290.024 191.592C290.218 191.477 290.463 191.561 290.675 191.639C292.639 192.355 294.936 192.225 296.714 191.125C297.889 190.398 298.784 189.229 299.206 187.921C299.243 187.748 299.275 187.574 299.296 187.395C299.584 184.984 298.302 182.752 296.258 181.708C296.025 181.627 295.786 181.562 295.54 181.523C293.475 181.197 291.233 182.629 290.817 184.678C286.679 182.86 285.651 177.911 285.966 173.835C286.062 172.597 284.713 171.815 283.673 172.493C274.564 178.44 266.793 175.503 262.31 172.542L260.603 186.82V186.821L260.44 188.188C259.472 196.285 264.789 203.679 272.545 205.501L272.749 214.643C272.867 219.908 277.23 224.08 282.494 223.962C287.759 223.844 291.931 219.481 291.813 214.217L291.658 207.296C291.632 207.296 291.604 207.296 291.578 207.296C290.533 207.295 289.427 207.232 288.558 206.652Z" fill="#FFBA94"/>
<path opacity="0.46" d="M287.321 198.104C284.3 202.026 279.17 204.034 273.618 203.371C265.454 202.395 259.627 194.986 260.602 186.822L260.439 188.189C259.459 196.384 264.916 203.86 272.824 205.567L272.755 205.584L272.908 212.436L286.389 202.195C286.546 202.063 286.701 201.928 286.853 201.79C287.051 201.61 287.293 200.571 287.427 199.63C287.569 198.635 287.592 197.751 287.321 198.104Z" fill="#FB8E77"/>
<path d="M272.812 183.49C272.752 183.995 273.112 184.454 273.618 184.515C274.124 184.576 274.582 184.215 274.643 183.709C274.704 183.203 274.343 182.745 273.837 182.684C273.331 182.623 272.872 182.984 272.812 183.49Z" fill="#233863"/>
<path d="M263.69 182.175C263.63 182.68 263.99 183.139 264.496 183.2C265.001 183.26 265.46 182.9 265.52 182.394C265.58 181.888 265.22 181.43 264.714 181.37C264.209 181.308 263.751 181.669 263.69 182.175Z" fill="#233863"/>
<path d="M268.679 189.643C266.038 189.643 265.243 188.396 265.023 187.859C264.915 187.595 264.931 187.3 265.068 187.05L267.994 181.671C268.127 181.427 268.431 181.34 268.673 181.47C268.915 181.602 269.005 181.906 268.873 182.148L265.946 187.528C266.092 187.83 266.645 188.642 268.679 188.642C268.684 188.642 268.689 188.642 268.695 188.642H268.696C268.971 188.642 269.195 188.865 269.196 189.141C269.197 189.424 268.989 189.645 268.679 189.643Z" fill="#FB8E77"/>
<path d="M269.175 199.353C269.014 199.353 268.855 199.274 268.758 199.129C268.725 199.078 267.957 197.97 266.684 198.301C266.414 198.373 266.143 198.21 266.074 197.943C266.005 197.675 266.165 197.402 266.432 197.333C268.411 196.815 269.546 198.505 269.593 198.578C269.744 198.808 269.68 199.119 269.449 199.27C269.365 199.327 269.27 199.353 269.175 199.353Z" fill="#FB8E77"/>
<path d="M275.02 181.461C274.77 181.476 274.5 181.347 274.232 181.238C273.964 181.122 273.693 181.013 273.454 180.925C273.214 180.838 272.936 180.747 272.656 180.664C272.38 180.575 272.09 180.5 271.911 180.329C271.737 180.167 271.744 179.888 272.099 179.67C272.436 179.455 273.153 179.348 273.947 179.635C274.739 179.925 275.209 180.464 275.32 180.842C275.442 181.234 275.26 181.45 275.02 181.461Z" fill="#233863"/>
<path d="M261.64 179.43C261.881 179.5 262.172 179.434 262.458 179.386C262.745 179.332 263.034 179.285 263.286 179.254C263.539 179.222 263.831 179.195 264.122 179.176C264.41 179.151 264.711 179.141 264.923 179.014C265.128 178.895 265.184 178.62 264.885 178.329C264.603 178.045 263.928 177.782 263.091 177.886C262.255 177.994 261.677 178.415 261.484 178.76C261.279 179.115 261.408 179.366 261.64 179.43Z" fill="#233863"/>
<path d="M295.301 189.111C295.212 189.111 295.122 189.088 295.041 189.038L292.839 187.698L294.866 184.461C295.012 184.227 295.322 184.157 295.555 184.303C295.788 184.45 295.86 184.758 295.713 184.992L294.223 187.369L295.56 188.182C295.796 188.326 295.87 188.633 295.727 188.869C295.634 189.026 295.469 189.111 295.301 189.111Z" fill="#FB8E77"/>
<path d="M271.735 194.856L273.51 194.563C275.709 194.2 277.197 192.123 276.834 189.924L276.796 189.697L270.05 190.811L270.581 194.03C270.672 194.576 271.188 194.946 271.735 194.856Z" fill="white"/>
<path d="M278.555 179.624C277.495 178.634 276.112 178.117 274.662 178.167C273.212 178.217 271.869 178.829 270.879 179.889C270.269 180.543 269.863 181.326 269.634 182.165C269.601 182.159 269.571 182.143 269.537 182.141L267.593 181.991C267.603 181.822 267.631 181.657 267.625 181.486C267.521 178.493 265 176.142 262.009 176.246C260.559 176.296 259.216 176.908 258.226 177.969C257.236 179.03 256.719 180.412 256.769 181.862C256.862 184.528 258.869 186.683 261.422 187.05C261.735 187.095 262.058 187.113 262.385 187.102C263.835 187.052 265.178 186.44 266.169 185.379C266.743 184.764 267.136 184.034 267.374 183.252L269.446 183.411C269.442 183.535 269.418 183.655 269.423 183.78C269.515 186.445 271.523 188.602 274.076 188.969C274.39 189.014 274.711 189.032 275.039 189.021C278.032 188.917 280.382 186.398 280.279 183.405C280.227 181.957 279.616 180.614 278.555 179.624ZM265.237 184.511C264.479 185.323 263.451 185.791 262.34 185.829C260.049 185.91 258.121 184.109 258.041 181.817C258.003 180.707 258.399 179.649 259.156 178.837C259.913 178.025 260.942 177.557 262.052 177.519C264.343 177.437 266.27 179.239 266.351 181.53C266.391 182.641 265.995 183.7 265.237 184.511ZM274.994 187.75C272.705 187.834 270.774 186.03 270.695 183.739C270.657 182.629 271.053 181.571 271.81 180.759C272.568 179.947 273.596 179.479 274.706 179.441C274.957 179.432 275.206 179.446 275.451 179.481C276.283 179.601 277.058 179.97 277.686 180.556C278.498 181.314 278.966 182.342 279.005 183.452C279.084 185.742 277.285 187.671 274.994 187.75Z" fill="white"/>
<path d="M34.5325 168.823H118.642C120.788 168.823 122.528 167.487 122.528 165.839V115.639V109.99C122.528 108.342 120.788 107.006 118.642 107.006H34.5325C32.3865 107.006 30.6465 108.342 30.6465 109.99V165.839C30.6465 167.487 32.3865 168.823 34.5325 168.823Z" fill="#FFB44F"/>
<path d="M122.528 118.77V109.99C122.528 108.342 120.788 107.006 118.642 107.006H34.5325C32.3865 107.006 30.6465 108.342 30.6465 109.99V118.387" fill="#3887FE"/>
<path d="M122.528 117.887H31.2012V118.887H122.528V117.887Z" fill="white"/>
<path d="M115.896 115.148C114.824 115.148 113.952 114.276 113.952 113.204C113.952 112.132 114.824 111.26 115.896 111.26C116.968 111.26 117.84 112.132 117.84 113.204C117.841 114.276 116.969 115.148 115.896 115.148ZM115.896 112.26C115.375 112.26 114.952 112.684 114.952 113.204C114.952 113.724 115.376 114.148 115.896 114.148C116.416 114.148 116.84 113.724 116.84 113.204C116.84 112.684 116.417 112.26 115.896 112.26Z" fill="white"/>
<path d="M110.477 115.148C109.405 115.148 108.533 114.276 108.533 113.204C108.533 112.132 109.405 111.26 110.477 111.26C111.549 111.26 112.421 112.132 112.421 113.204C112.421 114.276 111.549 115.148 110.477 115.148ZM110.477 112.26C109.956 112.26 109.533 112.684 109.533 113.204C109.533 113.724 109.957 114.148 110.477 114.148C110.997 114.148 111.421 113.724 111.421 113.204C111.421 112.684 110.997 112.26 110.477 112.26Z" fill="white"/>
<path d="M105.16 115.148C104.088 115.148 103.216 114.276 103.216 113.204C103.216 112.132 104.088 111.26 105.16 111.26C106.232 111.26 107.104 112.132 107.104 113.204C107.104 114.276 106.232 115.148 105.16 115.148ZM105.16 112.26C104.639 112.26 104.216 112.684 104.216 113.204C104.216 113.724 104.64 114.148 105.16 114.148C105.68 114.148 106.104 113.724 106.104 113.204C106.104 112.684 105.681 112.26 105.16 112.26Z" fill="white"/>
<path d="M79.8908 134.314H43.0518C42.7758 134.314 42.5518 134.09 42.5518 133.814C42.5518 133.538 42.7758 133.314 43.0518 133.314H79.8908C80.1668 133.314 80.3908 133.538 80.3908 133.814C80.3908 134.091 80.1668 134.314 79.8908 134.314Z" fill="white"/>
<path d="M79.8907 151.26H61.4717C61.1957 151.26 60.9717 151.036 60.9717 150.76C60.9717 150.484 61.1957 150.26 61.4717 150.26H79.8907C80.1667 150.26 80.3907 150.484 80.3907 150.76C80.3907 151.036 80.1667 151.26 79.8907 151.26Z" fill="white"/>
<path d="M79.8907 142.92H66.1377C65.8617 142.92 65.6377 142.696 65.6377 142.42C65.6377 142.144 65.8617 141.92 66.1377 141.92H79.8907C80.1667 141.92 80.3907 142.144 80.3907 142.42C80.3907 142.696 80.1667 142.92 79.8907 142.92Z" fill="white"/>
<path d="M56.8048 142.92H43.0518C42.7758 142.92 42.5518 142.696 42.5518 142.42C42.5518 142.144 42.7758 141.92 43.0518 141.92H56.8048C57.0808 141.92 57.3048 142.144 57.3048 142.42C57.3048 142.696 57.0808 142.92 56.8048 142.92Z" fill="white"/>
<path d="M111.378 156.815H86.8818V127.592H111.378V156.815ZM87.8818 155.815H110.378V128.592H87.8818V155.815Z" fill="white"/>
<path d="M181.53 229.282H76.4967C73.7447 229.282 71.5137 227.051 71.5137 224.299V71.4576C71.5137 68.7056 73.7447 66.4746 76.4967 66.4746H181.529C184.281 66.4746 186.512 68.7056 186.512 71.4576V224.299C186.513 227.051 184.282 229.282 181.53 229.282Z" fill="#53D0F7"/>
<path d="M183.956 74.0417H74.0716C72.6596 74.0417 71.5146 72.8967 71.5146 71.4847V65.6507C71.5146 64.2387 72.6596 63.0938 74.0716 63.0938H183.956C185.368 63.0938 186.513 64.2387 186.513 65.6507V71.4847C186.513 72.8967 185.368 74.0417 183.956 74.0417Z" fill="#233863"/>
<path d="M129.352 175.305H87.6807C86.8527 175.305 86.1807 174.634 86.1807 173.805C86.1807 172.976 86.8527 172.305 87.6807 172.305H129.352C130.18 172.305 130.852 172.976 130.852 173.805C130.852 174.634 130.18 175.305 129.352 175.305Z" fill="white"/>
<path d="M166.174 191.898H87.6807C87.1277 191.898 86.6807 191.45 86.6807 190.898C86.6807 190.346 87.1277 189.898 87.6807 189.898H166.174C166.727 189.898 167.174 190.346 167.174 190.898C167.174 191.45 166.727 191.898 166.174 191.898Z" fill="white"/>
<path d="M166.174 206.133H87.6807C87.1277 206.133 86.6807 205.685 86.6807 205.133C86.6807 204.581 87.1277 204.133 87.6807 204.133H166.174C166.727 204.133 167.174 204.581 167.174 205.133C167.174 205.685 166.727 206.133 166.174 206.133Z" fill="white"/>
<path d="M162.285 144.21C167.155 137.615 170.038 129.463 170.038 120.635C170.038 98.6913 152.249 80.9023 130.305 80.9023C108.361 80.9023 90.5723 98.6913 90.5723 120.635C90.5723 128.897 93.0953 136.568 97.4113 142.924H162.285V144.21Z" fill="white"/>
<path d="M130.305 160.368C143.421 160.368 155.049 154.009 162.285 144.21V142.924H97.4111C104.557 153.451 116.623 160.368 130.305 160.368Z" fill="#3887FE"/>
<path d="M146.242 88.1668C143.765 85.1068 139.173 81.8148 130.77 81.2598C124.741 80.8608 118.325 81.9548 113.826 86.2858C110.777 89.2208 108.949 93.2818 108.196 97.4078C107.237 102.665 108.694 107.633 109.96 112.682L119.995 124.246L122.016 113.964C122.082 113.848 122.102 113.679 122.108 113.497L125.277 97.3798C125.801 97.0308 126.362 96.7398 126.951 96.5228C129.507 95.5838 132.661 95.8498 135.311 96.1048C135.349 96.1088 135.371 96.1078 135.401 96.1088C137.968 96.4168 141.169 95.8968 143.827 95.2588C144.85 95.0128 145.674 94.4478 146.257 93.7118C147.48 92.1738 147.629 89.8808 146.242 88.1668Z" fill="#142647"/>
<path d="M149.451 120.043L149.405 119.661L146.934 98.9918L146.528 95.5978L146.408 94.5958C146.372 94.2968 146.315 94.0058 146.257 93.7148C145.674 94.4498 144.85 95.0158 143.827 95.2618C141.169 95.8998 137.967 96.4198 135.401 96.1118C135.371 96.1108 135.349 96.1108 135.311 96.1078C132.66 95.8528 129.507 95.5868 126.951 96.5258C124.517 97.4198 122.525 99.5458 121.927 102.086C121.384 104.393 121.829 106.863 121.907 109.201C121.943 110.279 122.017 111.355 122.046 112.434C122.056 112.813 122.217 113.617 122.016 113.969C119.944 117.595 122.57 110.448 115.201 108.374L114.762 108.426C111.67 108.796 109.463 111.602 109.833 114.693C110.203 117.785 113.009 119.992 116.1 119.622L117.433 119.463L117.776 122.336C117.758 122.545 117.736 122.753 117.731 122.966L117.324 141.16C117.202 146.621 121.53 151.147 126.991 151.269L130.211 151.341C135.672 151.463 140.198 147.135 140.32 141.674L140.504 133.457C146.283 131.815 150.186 126.196 149.451 120.043Z" fill="#A55356"/>
<path opacity="0.46" d="M149.452 120.044L149.406 119.662C150.155 125.926 145.684 131.61 139.42 132.359L132.538 133.182C126.274 133.931 120.589 129.46 119.841 123.196C119.841 123.196 119.489 121.278 118.974 118.509C118.771 117.417 117.434 119.46 117.434 119.46L117.954 123.808C118.752 130.481 124.698 135.269 131.343 134.706L140.109 139.819L140.249 133.534C146.171 131.992 150.198 126.289 149.452 120.044ZM138.583 133.863C138.91 133.824 139.228 133.762 139.546 133.698C139.23 133.765 138.911 133.824 138.583 133.863Z" fill="#833742"/>
<path opacity="0.46" d="M146.528 95.5977L146.934 98.9917L146.528 95.5977Z" fill="#833742"/>
<path d="M135.304 111.652C135.364 112.157 135.004 112.616 134.498 112.677C133.993 112.737 133.534 112.377 133.474 111.871C133.413 111.366 133.774 110.907 134.28 110.847C134.785 110.786 135.244 111.146 135.304 111.652Z" fill="#142647"/>
<path d="M144.378 110.336C144.438 110.841 144.078 111.3 143.572 111.36C143.067 111.421 142.608 111.06 142.548 110.554C142.488 110.049 142.848 109.59 143.354 109.53C143.859 109.469 144.318 109.83 144.378 110.336Z" fill="#142647"/>
<path d="M136.096 121.308C134.69 121.308 133.567 121.008 132.74 120.41C131.661 119.629 131.515 118.616 131.51 118.573C131.474 118.299 131.666 118.048 131.941 118.012C132.196 117.976 132.462 118.165 132.502 118.436C132.508 118.473 132.621 119.103 133.357 119.62C134.072 120.123 135.532 120.609 138.4 120.069C138.666 120.019 138.933 120.196 138.984 120.468C139.035 120.739 138.857 121.001 138.586 121.052C137.676 121.223 136.846 121.308 136.096 121.308Z" fill="#833742"/>
<path d="M138.845 118.156C138.778 118.156 138.709 118.155 138.64 118.154C138.365 118.148 138.146 117.919 138.152 117.643C138.159 117.367 138.398 117.171 138.664 117.154C139.231 117.165 139.747 117.12 140.2 117.016C140.842 116.868 141.377 116.437 141.666 115.836C141.966 115.213 141.967 114.5 141.669 113.878L138.349 106.942C138.23 106.693 138.335 106.395 138.584 106.275C138.831 106.154 139.132 106.26 139.251 106.51L142.571 113.446C143.001 114.343 142.999 115.373 142.567 116.27C142.145 117.146 141.364 117.774 140.424 117.991C139.947 118.101 139.417 118.156 138.845 118.156Z" fill="#833742"/>
<path d="M139.628 128.337C139.494 128.337 139.36 128.283 139.262 128.177C138.364 127.21 137.119 127.733 137.068 127.757C136.817 127.868 136.521 127.754 136.41 127.501C136.299 127.249 136.411 126.956 136.662 126.843C136.74 126.808 138.606 125.999 139.995 127.497C140.184 127.7 140.171 128.016 139.969 128.204C139.872 128.294 139.75 128.337 139.628 128.337Z" fill="#833742"/>
<path d="M128.747 108.991C129.195 109.017 129.68 108.786 130.16 108.59C130.64 108.382 131.127 108.185 131.556 108.029C131.986 107.872 132.486 107.709 132.987 107.56C133.482 107.401 134.003 107.265 134.325 106.959C134.637 106.669 134.625 106.167 133.987 105.776C133.382 105.39 132.097 105.199 130.672 105.714C129.252 106.235 128.408 107.201 128.208 107.88C127.99 108.583 128.316 108.971 128.747 108.991Z" fill="#142647"/>
<path d="M146.394 105.977C146.071 106.07 145.68 105.982 145.297 105.918C144.913 105.846 144.525 105.783 144.186 105.74C143.846 105.697 143.455 105.661 143.065 105.635C142.678 105.601 142.275 105.588 141.99 105.418C141.714 105.258 141.64 104.89 142.04 104.5C142.418 104.119 143.323 103.767 144.447 103.906C145.569 104.051 146.344 104.616 146.602 105.078C146.878 105.554 146.705 105.891 146.394 105.977Z" fill="#142647"/>
<path d="M113.83 116.406C113.662 116.406 113.497 116.32 113.403 116.166C113.26 115.93 113.334 115.623 113.57 115.479L114.906 114.666L113.416 112.288C113.27 112.054 113.341 111.746 113.574 111.599C113.809 111.453 114.117 111.524 114.263 111.757L116.29 114.993L114.089 116.333C114.009 116.382 113.919 116.406 113.83 116.406Z" fill="#833742"/>
<path d="M181.126 70.6965C180.998 70.6965 180.87 70.6475 180.772 70.5495L177.439 67.2165C177.244 67.0215 177.244 66.7045 177.439 66.5095C177.634 66.3145 177.951 66.3145 178.146 66.5095L181.479 69.8425C181.674 70.0375 181.674 70.3545 181.479 70.5495C181.382 70.6475 181.254 70.6965 181.126 70.6965Z" fill="white"/>
<path d="M177.793 70.6965C177.665 70.6965 177.537 70.6475 177.439 70.5495C177.244 70.3545 177.244 70.0375 177.439 69.8425L180.772 66.5095C180.967 66.3145 181.284 66.3145 181.479 66.5095C181.674 66.7045 181.674 67.0215 181.479 67.2165L178.146 70.5495C178.049 70.6475 177.921 70.6965 177.793 70.6965Z" fill="white"/>
<path d="M113.451 197.076H31.1992V246.297H113.451V197.076Z" fill="#FFB44F"/>
<path d="M64.4446 236.504H40.2666C39.7136 236.504 39.2666 236.056 39.2666 235.504C39.2666 234.952 39.7136 234.504 40.2666 234.504H64.4456C64.9986 234.504 65.4456 234.952 65.4456 235.504C65.4446 236.056 64.9976 236.504 64.4446 236.504Z" fill="#243762"/>
<path d="M64.4446 209.086H40.2666C39.7136 209.086 39.2666 208.638 39.2666 208.086C39.2666 207.534 39.7136 207.086 40.2666 207.086H64.4456C64.9986 207.086 65.4456 207.534 65.4456 208.086C65.4446 208.638 64.9976 209.086 64.4446 209.086Z" fill="white"/>
<path d="M64.4446 217.289H40.2666C39.7136 217.289 39.2666 216.841 39.2666 216.289C39.2666 215.737 39.7136 215.289 40.2666 215.289H64.4456C64.9986 215.289 65.4456 215.737 65.4456 216.289C65.4446 216.842 64.9976 217.289 64.4446 217.289Z" fill="#243762"/>
<path d="M75.8876 226.789H40.2666C39.7136 226.789 39.2666 226.341 39.2666 225.789C39.2666 225.237 39.7136 224.789 40.2666 224.789H75.8876C76.4406 224.789 76.8876 225.237 76.8876 225.789C76.8876 226.341 76.4396 226.789 75.8876 226.789Z" fill="#243762"/>
<path d="M104.265 208.086H85.9351C85.3931 208.086 84.9531 208.525 84.9531 209.068V237.113C84.9531 237.655 85.3921 238.094 85.9351 238.094H104.265C104.807 238.094 105.247 237.655 105.247 237.113V209.068C105.247 208.525 104.808 208.086 104.265 208.086Z" fill="#2F7DED"/>
<path d="M368.195 341.124H447.236C449.988 341.124 452.219 338.893 452.219 336.141V217.989C452.219 215.237 449.988 213.006 447.236 213.006H368.195C365.443 213.006 363.212 215.237 363.212 217.989V336.141C363.212 338.893 365.443 341.124 368.195 341.124Z" fill="#2F7DED"/>
<path d="M374.887 279.086H328.664V307.21H374.887V279.086Z" fill="#FFB44F"/>
<path d="M369.792 285.754H356.204C355.928 285.754 355.704 285.53 355.704 285.254C355.704 284.978 355.928 284.754 356.204 284.754H369.792C370.068 284.754 370.292 284.978 370.292 285.254C370.292 285.53 370.068 285.754 369.792 285.754Z" fill="#243762"/>
<path d="M369.792 301.418H356.204C355.928 301.418 355.704 301.194 355.704 300.918C355.704 300.642 355.928 300.418 356.204 300.418H369.792C370.068 300.418 370.292 300.642 370.292 300.918C370.292 301.194 370.068 301.418 369.792 301.418Z" fill="white"/>
<path d="M369.792 296.73H356.204C355.928 296.73 355.704 296.506 355.704 296.23C355.704 295.954 355.928 295.73 356.204 295.73H369.792C370.068 295.73 370.292 295.954 370.292 296.23C370.292 296.507 370.068 296.73 369.792 296.73Z" fill="#243762"/>
<path d="M369.792 291.305H349.774C349.498 291.305 349.274 291.081 349.274 290.805C349.274 290.529 349.498 290.305 349.774 290.305H369.792C370.068 290.305 370.292 290.529 370.292 290.805C370.292 291.081 370.068 291.305 369.792 291.305Z" fill="#243762"/>
<path d="M334.256 300.918H343.697C344.239 300.918 344.679 300.479 344.679 299.937V284.754C344.679 284.212 344.24 283.773 343.697 283.773H334.256C333.714 283.773 333.275 284.212 333.275 284.754V299.937C333.275 300.479 333.714 300.918 334.256 300.918Z" fill="#53D0F7"/>
<path d="M365.769 218.961H449.662C451.074 218.961 452.219 217.816 452.219 216.404V212.903C452.219 211.491 451.074 210.346 449.662 210.346H365.769C364.357 210.346 363.212 211.491 363.212 212.903V216.404C363.212 217.816 364.357 218.961 365.769 218.961Z" fill="#233863"/>
<path d="M439.707 311.918H378.954C378.401 311.918 377.954 311.471 377.954 310.918C377.954 310.365 378.401 309.918 378.954 309.918H439.707C440.26 309.918 440.707 310.365 440.707 310.918C440.707 311.471 440.26 311.918 439.707 311.918Z" fill="white"/>
<path d="M439.707 323.121H378.954C378.401 323.121 377.954 322.674 377.954 322.121C377.954 321.568 378.401 321.121 378.954 321.121H439.707C440.26 321.121 440.707 321.568 440.707 322.121C440.707 322.674 440.26 323.121 439.707 323.121Z" fill="white"/>
<path d="M381.964 274.178C378.195 268.988 375.964 262.573 375.964 255.626C375.964 238.358 389.732 224.359 406.717 224.359C423.702 224.359 437.47 238.358 437.47 255.626C437.47 262.127 435.517 268.164 432.177 273.166H381.965V274.178H381.964Z" fill="white"/>
<path d="M406.716 286.893C396.564 286.893 387.564 281.889 381.964 274.178V273.166H432.176C426.644 281.45 417.306 286.893 406.716 286.893Z" fill="#53D0F7"/>
<path d="M403.822 235.468C403.893 235.416 403.961 235.362 404.027 235.306C403.955 235.258 403.913 235.23 403.913 235.23C403.89 235.316 403.851 235.387 403.822 235.468Z" fill="#FFCCB3"/>
<path d="M428.131 253.402C428.263 252.738 428.333 252.051 428.333 251.348C428.333 248.233 426.969 245.447 424.821 243.556C424.718 238.641 422.906 223.168 404.093 224.433C396.547 224.94 392.423 227.946 390.199 230.74C388.691 232.634 389.202 235.303 390.999 236.589C390.419 237.501 390.078 238.585 390.078 239.752C390.078 241.047 390.498 242.24 391.2 243.208C389.292 245.272 388.222 248.119 388.497 251.161C388.53 251.529 388.584 251.89 388.654 252.245C384.977 254.854 382.737 259.334 383.176 264.199C383.827 271.412 390.106 276.722 397.2 276.06C402.161 275.597 406.198 272.332 407.96 267.946C409.637 273.256 414.53 277.102 420.311 277.102C427.477 277.102 433.286 271.196 433.286 263.911C433.286 259.615 431.258 255.811 428.131 253.402ZM408.288 258.967C407.948 257.894 407.477 256.887 406.895 255.96C407.47 255.095 407.912 254.136 408.207 253.117C408.423 254.385 408.866 255.57 409.493 256.635C409.018 257.365 408.616 258.146 408.288 258.967ZM403.915 235.231C403.915 235.231 403.957 235.259 404.029 235.307C403.963 235.362 403.895 235.416 403.824 235.469C403.852 235.388 403.891 235.317 403.915 235.231ZM403.418 236.269C404.041 236.212 404.689 236.162 405.345 236.143C407.023 237.174 409.938 238.836 412.793 239.89C412.963 240.255 413.108 240.632 413.199 241.027C413.294 241.436 413.345 241.852 413.375 242.271C411.019 243.566 409.23 245.782 408.462 248.444C407.796 244.582 405.045 241.54 401.514 240.429C401.539 240.207 401.556 239.981 401.556 239.752C401.556 239.041 401.425 238.364 401.196 237.734C402.137 237.455 402.914 236.99 403.418 236.269Z" fill="#FFB44F"/>
<path d="M413.131 250.377C412.975 250.1 413.1 249.468 413.108 249.17C413.131 248.321 413.187 247.474 413.216 246.626C413.277 244.787 413.621 242.843 413.201 241.027C413.11 240.632 412.965 240.255 412.795 239.89C409.94 238.837 407.025 237.174 405.347 236.143C404.691 236.162 404.043 236.211 403.42 236.269C401.844 238.521 397.637 238.301 393.968 237.571C393.966 237.587 393.962 237.602 393.96 237.618L393.844 238.601L393.539 241.196L392.212 252.48C391.44 259.043 395.831 265.01 402.127 266.213L402.268 272.628C402.356 276.636 405.678 279.812 409.686 279.721C413.689 279.63 416.862 276.312 416.774 272.309L416.436 256.935C416.433 256.816 416.407 256.704 416.399 256.587C416.478 256.212 416.546 255.832 416.591 255.444L416.678 254.702L417.71 254.827C420.103 255.118 422.275 253.381 422.561 250.948C422.847 248.515 421.139 246.307 418.746 246.016L418.449 245.98C412.718 247.604 414.737 253.235 413.131 250.377Z" fill="#FFCCB3"/>
<path opacity="0.46" d="M415.106 255.158C414.365 261.459 408.741 265.956 402.544 265.203L402.103 265.149C395.906 264.396 391.483 258.677 392.224 252.377L393.843 238.602V238.604L392.211 252.482C391.433 259.1 395.905 265.111 402.287 266.242L402.384 270.649L410.429 264.821C411.178 264.39 411.879 263.882 412.523 263.304L413.444 262.387C415.123 260.527 416.273 258.142 416.59 255.445L415.106 255.158Z" fill="#FC7D68"/>
<path d="M402.844 248.555C402.797 248.953 403.076 249.314 403.468 249.361C403.859 249.409 404.214 249.125 404.261 248.727C404.308 248.329 404.029 247.968 403.637 247.921C403.246 247.874 402.891 248.157 402.844 248.555Z" fill="#233863"/>
<path d="M395.823 247.52C395.776 247.918 396.055 248.279 396.447 248.326C396.838 248.374 397.193 248.09 397.24 247.692C397.287 247.294 397.008 246.933 396.616 246.886C396.225 246.839 395.87 247.123 395.823 247.52Z" fill="#233863"/>
<path d="M402.232 256.138C401.653 256.138 401.011 256.072 400.309 255.937C400.106 255.898 399.972 255.702 400.011 255.499C400.05 255.296 400.25 255.16 400.45 255.201C402.68 255.627 403.813 255.24 404.368 254.84C404.945 254.422 405.027 253.91 405.027 253.904C405.053 253.7 405.239 253.554 405.448 253.581C405.653 253.608 405.798 253.796 405.771 254.002C405.766 254.035 405.654 254.835 404.807 255.447C404.171 255.907 403.309 256.138 402.232 256.138Z" fill="#FC7D68"/>
<path d="M400.602 253.405C400.218 253.405 399.865 253.367 399.55 253.293C398.924 253.145 398.401 252.723 398.115 252.133C397.818 251.519 397.814 250.812 398.104 250.194L400.293 245.548C400.381 245.361 400.606 245.28 400.792 245.368C400.979 245.456 401.06 245.68 400.971 245.867L398.783 250.513C398.59 250.925 398.593 251.396 398.791 251.806C398.977 252.191 399.316 252.467 399.722 252.562C400.013 252.631 400.35 252.665 400.722 252.653C400.96 252.663 401.101 252.812 401.106 253.019C401.111 253.226 400.947 253.398 400.74 253.403C400.693 253.404 400.647 253.405 400.602 253.405Z" fill="#FC7D68"/>
<path d="M399.5 261.671C399.41 261.671 399.319 261.638 399.247 261.572C399.095 261.432 399.083 261.195 399.223 261.042C400.082 260.101 401.28 260.297 401.793 260.53C401.981 260.616 402.065 260.839 401.979 261.027C401.892 261.215 401.674 261.298 401.483 261.214C401.438 261.193 400.473 260.782 399.777 261.548C399.703 261.629 399.602 261.671 399.5 261.671Z" fill="#FC7D68"/>
<path d="M407.792 246.386C407.451 246.406 407.084 246.228 406.719 246.077C406.355 245.917 405.985 245.765 405.659 245.644C405.332 245.523 404.953 245.397 404.572 245.282C404.197 245.159 403.8 245.055 403.557 244.818C403.32 244.594 403.329 244.207 403.813 243.905C404.273 243.607 405.248 243.46 406.33 243.857C407.408 244.259 408.049 245.005 408.2 245.529C408.366 246.071 408.119 246.37 407.792 246.386Z" fill="#E2963B"/>
<path d="M394.394 244.059C394.639 244.131 394.936 244.063 395.227 244.014C395.519 243.958 395.813 243.91 396.07 243.877C396.328 243.844 396.625 243.816 396.921 243.796C397.215 243.77 397.521 243.76 397.737 243.629C397.946 243.505 398.002 243.221 397.699 242.92C397.412 242.626 396.725 242.354 395.872 242.462C395.02 242.574 394.432 243.01 394.236 243.366C394.027 243.734 394.158 243.993 394.394 244.059Z" fill="#E2963B"/>
<path d="M419.466 252.404C419.376 252.404 419.284 252.38 419.202 252.329L417.409 251.219L419.032 248.586C419.178 248.35 419.486 248.278 419.721 248.422C419.955 248.567 420.029 248.875 419.884 249.11L418.784 250.894L419.729 251.479C419.963 251.625 420.036 251.932 419.89 252.167C419.796 252.32 419.633 252.404 419.466 252.404Z" fill="#FC7D68"/>
<path d="M367.381 216.435C367.254 216.435 367.128 216.387 367.03 216.291C366.833 216.098 366.831 215.781 367.024 215.584L369.603 212.962C369.796 212.765 370.113 212.763 370.31 212.956C370.507 213.149 370.509 213.466 370.316 213.663L367.737 216.286C367.64 216.385 367.51 216.435 367.381 216.435Z" fill="white"/>
<path d="M369.96 216.435C369.831 216.435 369.701 216.385 369.603 216.286L367.024 213.663C366.831 213.466 366.833 213.149 367.03 212.956C367.227 212.763 367.544 212.765 367.737 212.962L370.316 215.584C370.509 215.781 370.507 216.098 370.31 216.291C370.213 216.387 370.087 216.435 369.96 216.435Z" fill="white"/>
<path d="M243.713 292.12V292.115V290.867C243.713 267.298 224.607 248.192 201.038 248.192H179.606C179.156 248.176 178.708 248.158 178.254 248.158H130.795C120.491 248.158 111.703 254.628 108.258 263.725L108.253 263.724L108.182 263.919C108.17 263.952 108.158 263.985 108.146 264.018L87.9619 319.036L88.8389 319.143L106.536 321.308L106.325 384.084H214.439L215.545 328.58L216.022 304.638L243.713 292.12Z" fill="#2F7DED"/>
<path d="M167.64 270.936C156.354 270.936 147.172 261.754 147.172 250.468V248.158C147.172 247.882 147.396 247.658 147.672 247.658C147.948 247.658 148.172 247.882 148.172 248.158V250.468C148.172 261.203 156.906 269.936 167.64 269.936C178.375 269.936 187.107 261.203 187.107 250.468V248.158C187.107 247.882 187.331 247.658 187.607 247.658C187.883 247.658 188.107 247.882 188.107 248.158V250.468C188.107 261.754 178.925 270.936 167.64 270.936Z" fill="#374081"/>
<path d="M153.977 259.797C153.817 259.797 153.66 259.72 153.563 259.577C151.659 256.764 150.652 253.475 150.652 250.065V248.158C150.652 247.882 150.876 247.658 151.152 247.658C151.428 247.658 151.652 247.882 151.652 248.158V250.065C151.652 253.274 152.599 256.37 154.391 259.016C154.546 259.245 154.486 259.555 154.257 259.71C154.171 259.769 154.073 259.797 153.977 259.797Z" fill="#374081"/>
<path d="M167.64 267.052C163.748 267.052 160.088 265.773 157.055 263.352C156.839 263.18 156.803 262.866 156.976 262.65C157.15 262.433 157.464 262.402 157.678 262.572C160.533 264.849 163.978 266.052 167.64 266.052C171.297 266.052 174.739 264.851 177.592 262.578C177.807 262.404 178.123 262.442 178.294 262.658C178.467 262.874 178.431 263.187 178.215 263.359C175.183 265.776 171.526 267.052 167.64 267.052Z" fill="#374081"/>
<path d="M181.987 258.695C181.903 258.695 181.818 258.674 181.74 258.629C181.5 258.493 181.416 258.188 181.552 257.947C182.909 255.555 183.627 252.83 183.627 250.063V248.156C183.627 247.88 183.851 247.656 184.127 247.656C184.403 247.656 184.627 247.88 184.627 248.156V250.063C184.627 253.002 183.864 255.899 182.421 258.441C182.33 258.604 182.161 258.695 181.987 258.695Z" fill="#374081"/>
<path d="M215.545 329.078C215.269 329.078 215.045 328.854 215.045 328.578V289.67C215.045 289.394 215.269 289.17 215.545 289.17C215.821 289.17 216.045 289.394 216.045 289.67V328.578C216.045 328.855 215.822 329.078 215.545 329.078Z" fill="#374081"/>
<path d="M135.877 324.398L123.905 323.933C123.63 323.922 123.414 323.69 123.425 323.413C123.437 323.138 123.642 322.933 123.945 322.933L135.134 323.369L142.988 296.204C143.064 295.938 143.343 295.783 143.607 295.862C143.873 295.939 144.025 296.216 143.949 296.481L135.877 324.398Z" fill="#374081"/>
<path d="M205.464 393.598L192.581 374.248C189.654 370.495 187.97 365.946 184.56 365.018L181.73 364.247L181.718 364.257L124.715 350.092L130.507 324.397L96.3888 320.064L84.4388 359.858C83.7878 362.693 83.7928 365.52 84.3268 368.199C85.7668 377.3 93.5628 384.567 103.369 384.739L164.058 384.587C170.361 391.187 183.875 401.049 186.535 402.028C186.771 402.115 190.146 404.766 190.146 404.766C191.032 405.537 192.389 405.443 193.16 404.557L193.293 404.404C193.804 403.817 193.927 403.027 193.701 402.334C193.776 402.32 193.826 402.31 193.826 402.31C193.889 402.328 193.941 402.336 194.003 402.352L194.895 403.218C195.844 404.14 197.375 404.117 198.296 403.168L198.455 403.004C198.86 402.587 199.072 402.057 199.113 401.516L199.153 401.557C200.078 402.503 201.609 402.52 202.555 401.595L202.718 401.436C203.664 400.511 203.681 398.98 202.756 398.034L202.469 397.741C202.44 397.662 202.409 397.584 202.378 397.508C203.289 398.034 204.476 397.926 205.262 397.157L205.425 396.998C206.371 396.075 206.389 394.544 205.464 393.598Z" fill="#FFBA94"/>
<path d="M202.559 398.006C202.429 398.006 202.299 397.956 202.202 397.856L194.569 390.048C194.376 389.851 194.38 389.534 194.577 389.341C194.776 389.149 195.093 389.152 195.284 389.35L202.917 397.157C203.11 397.354 203.107 397.671 202.909 397.864C202.811 397.958 202.685 398.006 202.559 398.006Z" fill="#FB8E77"/>
<path d="M198.504 401.068C198.374 401.068 198.244 401.018 198.147 400.918L190.514 393.111C190.321 392.914 190.325 392.597 190.522 392.404C190.72 392.212 191.037 392.214 191.229 392.412L198.862 400.219C199.055 400.416 199.051 400.733 198.854 400.926C198.756 401.021 198.63 401.068 198.504 401.068Z" fill="#FB8E77"/>
<path d="M193.685 402.664C193.56 402.664 193.435 402.617 193.338 402.524L185.473 394.951C185.274 394.76 185.268 394.443 185.459 394.244C185.652 394.046 185.969 394.041 186.166 394.23L194.031 401.803C194.23 401.994 194.236 402.311 194.045 402.51C193.946 402.612 193.815 402.664 193.685 402.664Z" fill="#FB8E77"/>
<path d="M129.842 351.868C129.806 351.868 129.768 351.864 129.73 351.855L108.536 346.987C108.267 346.926 108.099 346.657 108.161 346.387C108.223 346.118 108.482 345.948 108.761 346.012L129.955 350.88C130.224 350.942 130.391 351.21 130.33 351.48C130.276 351.712 130.07 351.868 129.842 351.868Z" fill="#FB8E77"/>
<path d="M270.862 221.271C270.862 221.271 266.734 220.123 266.094 222.455C262.221 236.566 260.333 238.899 260.333 238.899C260.645 238.388 260.115 236.329 260.028 235.724C259.867 234.612 259.62 233.509 259.161 232.479C258.378 230.72 256.642 229.493 254.649 229.993C254.307 230.079 253.952 230.235 253.778 230.542C253.622 230.817 253.645 231.155 253.674 231.47C253.928 234.203 254.45 236.905 254.709 239.636C254.452 240.292 254.257 240.97 254.125 241.661C253.382 243.152 252.383 245.941 253.145 249.189C253.184 249.354 253.219 249.517 253.251 249.677C253.515 251.015 254.024 252.264 254.712 253.396L254.814 254.556L244.474 292.032C244.474 292.032 243.714 292.114 243.714 292.118L216.024 304.635L215.547 328.577C218.082 329.856 220.426 331.253 223.13 332.144C226.676 333.313 230.355 334.064 234.067 334.454C241.555 335.24 249.161 334.578 256.495 332.948C259.185 332.35 261.877 331.615 264.293 330.29C274.132 324.895 273.823 311.083 274.162 301.407C274.352 296.001 274.541 290.595 274.73 285.189C275.061 275.747 275.392 266.306 275.723 256.864C275.747 256.179 275.771 255.494 275.795 254.809C275.795 254.809 276.048 240.364 275.974 240.486C277.628 232.443 278.462 221.515 270.862 221.271Z" fill="#FFBA94"/>
<path d="M238.716 312.303C238.676 312.303 238.634 312.298 238.593 312.287C238.325 312.22 238.163 311.947 238.232 311.68L243.229 291.996C243.296 291.728 243.565 291.561 243.836 291.635C244.104 291.702 244.266 291.975 244.197 292.242L239.2 311.926C239.142 312.152 238.939 312.303 238.716 312.303Z" fill="#FB8E77"/>
<path d="M269.579 231.122C270.739 226.844 270.541 221.396 270.528 221.093C270.519 220.859 270.321 220.676 270.086 220.686C269.852 220.695 269.67 220.89 269.679 221.128C269.683 221.222 270.027 230.709 267.267 234.217C267.123 234.4 267.153 234.668 267.338 234.814C267.522 234.959 267.789 234.928 267.935 234.743C268.668 233.814 269.197 232.531 269.579 231.122Z" fill="#FB8E77"/>
<path d="M272.94 231.045C274.642 224.766 273.224 221.631 273.149 221.474C273.049 221.262 272.796 221.171 272.583 221.272C272.37 221.373 272.281 221.626 272.379 221.836C272.4 221.88 274.358 226.311 270.589 235.181C270.501 235.394 270.597 235.647 270.814 235.739C271.03 235.831 271.28 235.73 271.372 235.514C272.067 233.879 272.575 232.389 272.94 231.045Z" fill="#FB8E77"/>
<path d="M275.529 233.182C276.599 229.235 276.322 224.994 276.307 224.769C276.29 224.535 276.087 224.358 275.853 224.374C275.619 224.392 275.444 224.594 275.458 224.828C275.462 224.895 275.897 231.587 273.611 235.782C273.493 235.988 273.575 236.246 273.781 236.359C273.987 236.472 274.245 236.395 274.358 236.189C274.863 235.262 275.244 234.233 275.529 233.182Z" fill="#FB8E77"/>
<path d="M195.962 151.146C192.167 151.146 188.692 152.507 185.99 154.764C183.289 152.507 179.813 151.146 176.018 151.146C167.544 151.146 160.664 157.92 160.467 166.347C158.03 167.248 155.351 168.015 151.989 168.65C131.925 172.443 150.043 196.815 150.043 196.815L154.785 202.413C154.785 202.413 167.794 194.131 164.723 182.222L198.376 188.088C202.915 184.388 205.777 180.752 207.327 177.326C209.926 174.544 211.529 170.819 211.529 166.712C211.53 158.116 204.56 151.146 195.962 151.146Z" fill="#243762"/>
<path d="M164.082 180.241C169.268 193.205 154.784 202.414 154.784 202.414L149.633 196.332C149.228 196.429 148.832 196.549 148.453 196.704C145.528 197.903 143.466 200.776 143.466 204.133V204.143C143.466 208.578 147.061 212.173 151.496 212.173H153.414V218.127C153.414 218.758 153.414 221.025 153.414 221.553V249.531C153.414 257.312 159.722 263.619 167.502 263.619H167.52C175.301 263.619 181.609 257.311 181.609 249.531V236.081C191.088 235.563 198.62 227.736 198.62 218.128V216.141V205.361V187.98V185.202C198.62 183.549 198.404 181.949 198.035 180.409C187.118 169.138 164.082 180.241 164.082 180.241Z" fill="#FFBA94"/>
<path opacity="0.46" d="M180.617 234.144H174.191C173.25 234.144 172.333 234.05 171.431 233.911L168.785 233.316C161.484 231.02 156.188 224.2 156.188 216.141V212.873L153.414 212.174V218.128C153.414 223.232 155.547 227.829 158.959 231.105L181.298 246.264V236.131L181.173 236.103C190.856 235.806 198.62 227.883 198.62 218.128V216.141C198.62 226.084 190.559 234.144 180.617 234.144Z" fill="#FB8E77"/>
<path d="M180.386 200.385C180.386 201.11 179.798 201.698 179.073 201.698C178.348 201.698 177.76 201.11 177.76 200.385C177.76 199.66 178.348 199.072 179.073 199.072C179.798 199.071 180.386 199.659 180.386 200.385Z" fill="#233863"/>
<path d="M194.175 199.385C194.175 200.11 193.587 200.698 192.862 200.698C192.137 200.698 191.549 200.11 191.549 199.385C191.549 198.66 192.137 198.072 192.862 198.072C193.587 198.071 194.175 198.659 194.175 199.385Z" fill="#233863"/>
<path d="M184.874 212.173C184.345 212.173 183.77 212.137 183.144 212.059C182.836 212.021 182.622 211.77 182.666 211.5C182.71 211.23 183.003 211.043 183.303 211.081C187.631 211.626 189.069 209.887 189.488 209.115C189.557 208.986 189.566 208.839 189.512 208.699L184.944 196.904C184.844 196.646 185.002 196.365 185.296 196.278C185.591 196.191 185.909 196.328 186.011 196.587L190.578 208.383C190.726 208.768 190.7 209.179 190.503 209.54C190.044 210.389 188.627 212.172 184.874 212.173Z" fill="#FB8E77"/>
<path d="M183.4 228.283C183.246 228.283 183.093 228.212 182.996 228.077C181.788 226.417 179.752 227.026 179.73 227.033C179.463 227.118 179.186 226.967 179.104 226.704C179.022 226.44 179.169 226.16 179.433 226.078C180.378 225.785 182.506 225.703 183.804 227.489C183.966 227.713 183.917 228.025 183.694 228.187C183.605 228.251 183.503 228.283 183.4 228.283Z" fill="#FB8E77"/>
<path d="M174.557 194.032C175.049 194.12 175.615 193.929 176.172 193.776C176.73 193.61 177.294 193.457 177.789 193.341C178.285 193.225 178.859 193.111 179.433 193.012C180 192.902 180.595 192.821 180.99 192.525C181.373 192.245 181.426 191.689 180.773 191.173C180.155 190.667 178.76 190.286 177.118 190.666C175.48 191.054 174.419 192.011 174.109 192.734C173.775 193.481 174.084 193.953 174.557 194.032Z" fill="#233863"/>
<path d="M195.098 193.391C194.735 193.45 194.322 193.304 193.914 193.185C193.506 193.057 193.093 192.938 192.731 192.848C192.368 192.757 191.947 192.667 191.527 192.588C191.111 192.501 190.675 192.435 190.388 192.213C190.109 192.003 190.077 191.594 190.562 191.222C191.021 190.857 192.05 190.592 193.253 190.89C194.452 191.193 195.221 191.907 195.441 192.442C195.679 192.995 195.446 193.338 195.098 193.391Z" fill="#233863"/>
<path d="M148.913 207.037C148.724 207.037 148.542 206.929 148.458 206.745C148.344 206.494 148.454 206.197 148.706 206.082L150.931 205.068L149.133 201.256C149.015 201.006 149.122 200.708 149.372 200.591C149.618 200.474 149.92 200.579 150.037 200.83L152.267 205.558L149.12 206.993C149.054 207.023 148.982 207.037 148.913 207.037Z" fill="#FB8E77"/>
<path d="M177.772 221.026L175.01 220.57C171.589 220.005 169.273 216.774 169.838 213.353L169.896 213L180.392 214.733L179.565 219.741C179.426 220.591 178.622 221.166 177.772 221.026Z" fill="white"/>
<path d="M344.474 311.234H270.532C267.888 311.234 265.569 313 264.866 315.549L247.832 377.296H245.729H198.291C197.39 377.296 196.852 378.301 197.352 379.051L201.264 384.919H245.729H330.212L350.142 318.866C351.289 315.065 348.444 311.234 344.474 311.234Z" fill="#2F4770"/>
<path d="M336.564 385.072H252.08L271.216 315.702C271.919 313.153 274.238 311.387 276.882 311.387H350.824C354.794 311.387 357.64 315.218 356.493 319.019L336.564 385.072Z" fill="#233863"/>
<path opacity="0.93" d="M247.832 377.297H245.729H198.291C197.39 377.297 196.852 378.302 197.352 379.052L201.264 384.92H245.729L247.832 377.297Z" fill="#233863"/>
<path d="M305.03 345.176C308.48 345.176 311.288 347.983 311.288 351.434C311.288 354.885 308.481 357.692 305.03 357.692C301.58 357.692 298.772 354.885 298.772 351.434C298.772 347.983 301.579 345.176 305.03 345.176ZM305.03 343.176C300.488 343.176 296.772 346.892 296.772 351.434C296.772 355.976 300.488 359.692 305.03 359.692C309.572 359.692 313.288 355.976 313.288 351.434C313.288 346.892 309.572 343.176 305.03 343.176Z" fill="white"/>
</svg>
