<svg width="207" height="60" viewBox="0 0 207 60" fill="none" xmlns="http://www.w3.org/2000/svg">
<path d="M67.3142 37.52C67.3142 36.7607 67.5498 36.3811 68.0211 36.3811C68.3091 36.3811 69.0945 37.0356 70.3775 38.3447C70.8749 38.816 71.4771 39.2611 72.184 39.68C72.8909 40.0727 73.5847 40.2691 74.2655 40.2691C75.1295 40.2691 75.9149 39.3658 76.6218 37.5593C77.3549 35.7265 78.3629 32.48 79.6458 27.8196C80.9287 23.1331 81.9629 20.1484 82.7484 18.8655C81.5964 19.0487 79.9731 19.3891 77.8785 19.8865C75.8102 20.384 74.5665 20.6327 74.1476 20.6327C73.1789 20.6327 72.6945 20.3055 72.6945 19.6509C72.6945 18.7607 74.3178 17.8575 77.5644 16.9411C80.8371 16.0247 83.2327 15.5665 84.7513 15.5665C85.2225 15.5665 85.6284 15.6713 85.9687 15.8807C86.3353 16.0902 86.5185 16.4044 86.5185 16.8233C86.5185 17.216 86.3353 17.9491 85.9687 19.0225C84.3455 23.7615 83.2851 26.9818 82.7876 28.6836C81.0858 34.8887 79.7898 38.9076 78.8996 40.7404C78.0095 42.5731 76.6742 43.4895 74.8938 43.4895C73.1396 43.4895 71.4378 42.7564 69.7884 41.2902C68.1389 39.824 67.3142 38.5673 67.3142 37.52ZM98.4486 30.608C98.4486 29.7178 98.3046 28.88 98.0166 28.0945C97.7286 27.2829 97.3096 26.6938 96.7598 26.3273C94.9533 26.8247 93.3955 28.2255 92.0864 30.5295C90.8035 32.8073 90.162 34.9542 90.162 36.9702C90.162 38.9862 90.6595 40.2429 91.6544 40.7404C93.5395 40.3738 95.1366 39.0909 96.4456 36.8916C97.7809 34.6662 98.4486 32.5716 98.4486 30.608ZM88.1198 30.9615C89.0362 28.9193 90.2275 27.2436 91.6936 25.9345C93.186 24.5993 94.7046 23.9316 96.2493 23.9316C97.8202 23.9316 99.1293 24.5993 100.177 25.9345C101.224 27.2436 101.747 28.8538 101.747 30.7651C101.747 32.6502 101.289 34.5876 100.373 36.5775C99.4566 38.5411 98.1867 40.1775 96.5635 41.4865C94.9664 42.7695 93.2646 43.4109 91.458 43.4109C90.1227 43.4109 89.01 42.7956 88.1198 41.5651C87.2296 40.3345 86.7846 38.7767 86.7846 36.8916C86.7846 34.9804 87.2296 33.0036 88.1198 30.9615ZM106.072 43.4109C105.706 43.4109 105.274 43.136 104.776 42.5862C104.279 42.0102 104.03 41.4735 104.03 40.976C104.03 40.4785 104.436 38.7767 105.248 35.8705C106.085 32.9644 106.91 29.4691 107.722 25.3847C108.56 21.2742 108.979 17.5171 108.979 14.1135C108.979 13.328 109.267 12.9353 109.843 12.9353C110.261 12.9353 110.772 13.328 111.374 14.1135C111.976 14.8727 112.277 15.6189 112.277 16.352C112.277 19.5724 111.571 24.1673 110.157 30.1367C113.272 25.9215 116.1 23.8138 118.64 23.8138C119.87 23.8138 120.904 24.416 121.742 25.6204C122.606 26.8247 123.038 28.2647 123.038 29.9404C123.038 31.5898 122.554 33.488 121.585 35.6349C120.643 37.7818 119.36 39.6276 117.736 41.1724C116.113 42.6909 114.411 43.4502 112.631 43.4502C110.851 43.4502 109.096 42.5469 107.368 40.7404L107.329 40.7796C106.753 42.5338 106.334 43.4109 106.072 43.4109ZM112.317 40.3869C114.019 40.3869 115.681 39.2349 117.304 36.9309C118.954 34.6007 119.779 32.1527 119.779 29.5869C119.779 28.0422 119.307 27.2698 118.365 27.2698C116.846 27.2698 115.144 28.3302 113.259 30.4509C111.4 32.5716 109.79 35.0982 108.429 38.0305C109.659 39.6015 110.955 40.3869 112.317 40.3869Z" fill="#050066"/>
<path d="M137.282 28.7393C137.199 27.8955 136.839 27.2401 136.205 26.7729C135.57 26.3057 134.709 26.0721 133.621 26.0721C132.882 26.0721 132.258 26.1767 131.749 26.3858C131.24 26.5881 130.85 26.8705 130.578 27.2331C130.313 27.5957 130.18 28.0071 130.18 28.4673C130.166 28.8509 130.246 29.1856 130.421 29.4715C130.602 29.7574 130.85 30.0049 131.163 30.2141C131.477 30.4163 131.84 30.5941 132.251 30.7475C132.663 30.894 133.102 31.0195 133.569 31.1241L135.494 31.5843C136.428 31.7935 137.286 32.0724 138.067 32.4211C138.848 32.7698 139.524 33.1986 140.096 33.7076C140.668 34.2167 141.111 34.8164 141.424 35.5067C141.745 36.1971 141.909 36.9885 141.916 37.8811C141.909 39.192 141.574 40.3286 140.912 41.2909C140.256 42.2463 139.308 42.9889 138.067 43.5189C136.833 44.0418 135.344 44.3033 133.6 44.3033C131.871 44.3033 130.365 44.0384 129.082 43.5084C127.806 42.9784 126.809 42.194 126.09 41.155C125.379 40.109 125.006 38.8155 124.971 37.2744H129.354C129.403 37.9926 129.608 38.5923 129.971 39.0735C130.341 39.5476 130.832 39.9068 131.446 40.1508C132.066 40.3879 132.767 40.5065 133.548 40.5065C134.315 40.5065 134.981 40.3949 135.546 40.1717C136.118 39.9486 136.561 39.6383 136.874 39.2408C137.188 38.8434 137.345 38.3866 137.345 37.8706C137.345 37.3895 137.202 36.985 136.916 36.6573C136.637 36.3295 136.226 36.0506 135.682 35.8205C135.145 35.5904 134.486 35.3812 133.705 35.1929L131.373 34.6072C129.567 34.1679 128.14 33.481 127.095 32.5466C126.049 31.6122 125.529 30.3536 125.536 28.7707C125.529 27.4737 125.874 26.3405 126.572 25.3713C127.276 24.402 128.242 23.6454 129.469 23.1015C130.696 22.5576 132.091 22.2856 133.653 22.2856C135.243 22.2856 136.63 22.5576 137.816 23.1015C139.008 23.6454 139.936 24.402 140.598 25.3713C141.26 26.3405 141.602 27.4632 141.623 28.7393H137.282ZM152.2 44.3138C150.548 44.3138 149.125 43.9791 147.933 43.3097C146.747 42.6333 145.834 41.6779 145.192 40.4437C144.551 39.2025 144.23 37.7346 144.23 36.0402C144.23 34.3875 144.551 32.9371 145.192 31.6889C145.834 30.4407 146.737 29.468 147.902 28.7707C149.073 28.0733 150.447 27.7247 152.023 27.7247C153.083 27.7247 154.069 27.8955 154.983 28.2372C155.903 28.5719 156.705 29.0775 157.388 29.7539C158.079 30.4303 158.616 31.281 158.999 32.306C159.383 33.3241 159.575 34.5165 159.575 35.8833V37.1071H146.008V34.3457H155.38C155.38 33.7042 155.241 33.1358 154.962 32.6408C154.683 32.1457 154.296 31.7587 153.801 31.4797C153.313 31.1938 152.744 31.0509 152.096 31.0509C151.419 31.0509 150.82 31.2078 150.297 31.5216C149.781 31.8284 149.376 32.2433 149.083 32.7663C148.791 33.2823 148.641 33.8576 148.634 34.4921V37.1175C148.634 37.9124 148.78 38.5993 149.073 39.1781C149.373 39.7568 149.795 40.2031 150.339 40.5169C150.883 40.8307 151.528 40.9876 152.274 40.9876C152.769 40.9876 153.222 40.9179 153.633 40.7784C154.045 40.6389 154.397 40.4298 154.69 40.1508C154.983 39.8719 155.206 39.5302 155.359 39.1258L159.48 39.3977C159.271 40.3879 158.842 41.2526 158.194 41.9917C157.552 42.7239 156.723 43.2957 155.704 43.7071C154.693 44.1116 153.525 44.3138 152.2 44.3138ZM165.537 44L161.164 27.9339H165.673L168.162 38.7283H168.308L170.902 27.9339H175.327L177.963 38.6655H178.099L180.546 27.9339H185.044L180.682 44H175.965L173.204 33.8959H173.005L170.243 44H165.537ZM192.002 44.3033C190.977 44.3033 190.064 44.1255 189.262 43.7699C188.46 43.4073 187.825 42.8738 187.358 42.1696C186.898 41.4583 186.668 40.5727 186.668 39.5128C186.668 38.6202 186.832 37.8706 187.159 37.2639C187.487 36.6573 187.933 36.1692 188.498 35.7996C189.063 35.43 189.705 35.1511 190.423 34.9628C191.148 34.7745 191.908 34.642 192.703 34.5653C193.637 34.4677 194.391 34.3771 194.962 34.2934C195.534 34.2027 195.949 34.0702 196.207 33.8959C196.465 33.7216 196.594 33.4636 196.594 33.1219V33.0591C196.594 32.3967 196.385 31.8842 195.966 31.5216C195.555 31.159 194.969 30.9777 194.209 30.9777C193.407 30.9777 192.769 31.1555 192.295 31.5111C191.821 31.8598 191.507 32.2991 191.354 32.829L187.233 32.4943C187.442 31.5181 187.853 30.6743 188.467 29.9631C189.081 29.2448 189.872 28.694 190.841 28.3104C191.817 27.9199 192.947 27.7247 194.23 27.7247C195.123 27.7247 195.977 27.8293 196.793 28.0385C197.616 28.2477 198.344 28.5719 198.979 29.0112C199.62 29.4505 200.126 30.0154 200.496 30.7057C200.865 31.3891 201.05 32.2084 201.05 33.1637V44H196.824V41.7721H196.699C196.441 42.2741 196.095 42.7169 195.663 43.1005C195.231 43.477 194.711 43.7734 194.105 43.9895C193.498 44.1987 192.797 44.3033 192.002 44.3033ZM193.278 41.2282C193.934 41.2282 194.513 41.0992 195.015 40.8412C195.517 40.5762 195.911 40.2206 196.197 39.7743C196.483 39.328 196.625 38.8224 196.625 38.2576V36.5527C196.486 36.6433 196.294 36.727 196.05 36.8037C195.813 36.8735 195.545 36.9397 195.245 37.0025C194.945 37.0582 194.645 37.1105 194.345 37.1593C194.045 37.2012 193.773 37.2395 193.529 37.2744C193.006 37.3511 192.55 37.4731 192.159 37.6405C191.769 37.8079 191.465 38.0345 191.249 38.3204C191.033 38.5993 190.925 38.948 190.925 39.3663C190.925 39.973 191.145 40.4367 191.584 40.7575C192.03 41.0713 192.595 41.2282 193.278 41.2282Z" fill="black"/>
<path d="M27.5175 53.75H24.0125C15.05 53.75 10.57 53.75 7.785 50.9125C5 48.075 5 43.5075 5 34.375C5 25.2425 5 20.675 7.785 17.8375C10.57 15 15.05 15 24.0125 15H33.52C42.4825 15 46.965 15 49.75 17.8375C51.8925 20.02 52.385 23.2275 52.5 28.75V32.5" stroke="black" stroke-width="4" stroke-linecap="round" stroke-linejoin="round"/>
<path d="M47.5 46.25H40M40 53.75C38.0109 53.75 36.1032 52.9598 34.6967 51.5533C33.2902 50.1468 32.5 48.2391 32.5 46.25C32.5 44.2609 33.2902 42.3532 34.6967 40.9467C36.1032 39.5402 38.0109 38.75 40 38.75M47.5 53.75C49.4891 53.75 51.3968 52.9598 52.8033 51.5533C54.2098 50.1468 55 48.2391 55 46.25C55 44.2609 54.2098 42.3532 52.8033 40.9467C51.3968 39.5402 49.4891 38.75 47.5 38.75M40 15L39.75 14.225C38.5125 10.375 37.895 8.45 36.4225 7.35C34.9475 6.25 32.9925 6.25 29.0775 6.25H28.42C24.5075 6.25 22.55 6.25 21.0775 7.35C19.6025 8.45 18.985 10.375 17.7475 14.225L17.5 15" stroke="black" stroke-width="4" stroke-linecap="round" stroke-linejoin="round"/>
</svg>
