<?xml version="1.0" encoding="utf-8"?>
<!-- Generator: Adobe Illustrator 19.0.0, SVG Export Plug-In . SVG Version: 6.00 Build 0)  -->
<svg version="1.1" baseProfile="tiny" id="Rodella_xA0_Image_1_"
	 xmlns="http://www.w3.org/2000/svg" xmlns:xlink="http://www.w3.org/1999/xlink" x="0px" y="0px" viewBox="-403 194 108 108"
	 xml:space="preserve">
<g>
	<g>
		<path d="M-349.1,194c29.8,0.2,53.9,23.9,53.8,54.2c-0.1,30.1-24.2,53.7-53.9,53.8c-29.8,0-53.9-24.2-53.8-54.2
			C-402.9,217.9-378.8,194.2-349.1,194z M-338.8,234.2c2-1.6,2.5-6.2-0.3-8.3c-1-0.8-2.5-1-3.4-1.9s-1.2-2.4-2-3.3
			c-3.4-4.3-8.2-5.6-13.4-6c-3.9-0.3-7.8,0.7-11.4,2c-6.4,2.4-13,2.8-19.5,1c-0.9-0.2-1.3,0-1.8,0.7c-8.6,12.3-11.4,26-8.3,40.7
			c6.6,30.8,40.4,48.4,69.3,36.2c2.1-0.9,4.1-1.9,6.3-3c-3.2-3.7-5.3-7.8-7.1-11.9c-3.1-7-6.1-14.1-9.4-21.1
			c-2.2-4.6-4.7-9.1-7.3-13.4c-2.6-4.3-6.8-6.4-11.6-7.1c-1.1-0.2-1.3,0.3-1.3,1.3c0,7.5,0,15.1,0,22.6c0,1.4,0,2.8,0,4.3
			c-5.7,0-11.2,0-16.9,0c0-0.5-0.1-0.9-0.1-1.3c0-6.3,0.1-12.6-0.1-18.8c-0.1-4.4,1.7-7.6,5.1-9.9c7.1-5.1,15.1-7.7,23.8-7.1
			C-344.8,230-341.3,230.8-338.8,234.2z M-385.2,211.8c0,0.1,0.1,0.3,0.1,0.4c0.5,0,1,0,1.4,0c13.3,0,26.5,0,39.8,0
			c4.5,0,8.5,1.3,12.1,3.6c5.9,3.8,6.6,11.9,3.4,16.4c-2.3,3.3-5.8,4.9-9.7,5.6c-0.8,0.1-1.7,0.3-2.5,0.4c0.1,0.2,0.1,0.3,0.2,0.3
			c0.1,0.1,0.2,0.1,0.3,0.1c5.2,1.3,9.3,4.1,12.1,8.7c3,4.8,5.4,9.7,7.4,14.9c2.4,6.2,4.8,12.3,7.9,18.1c0.3,0.6,0.7,1.2,1.2,2
			c12.1-14.5,16.5-30.6,11.2-48.5c-6.2-20.6-20.4-33.1-41.7-36.4C-358.5,194.8-373,200.3-385.2,211.8z"/>
		<g id="eye">
			<path fill="#115106" d="M-354.3,221.1c2.7,0.9,5.6,1.8,8.3,2.7c0,0.2-0.1,0.3-0.1,0.5c-0.1,0-3.3-0.6-3.4-0.2s-2.7-0.3-3-0.5
				c-0.3-0.3-0.8-0.3-0.9-0.9c-0.1-0.6-0.8-0.8-1.2-1.3C-354.3,221.3-354.3,221.2-354.3,221.1z"/>
			<path fill="#115106" d="M-346.1,224.4c0,0,1.7,0,0.1-0.5C-347.6,223.3-346.1,224.4-346.1,224.4z"/>
			<path fill="#115106" d="M-354.5,221.4c0,0-0.4-0.5,0.2-0.3S-354.5,221.4-354.5,221.4z"/>
			<path fill="#115106" d="M-353.5,222.6c0,0,0.3,3.3,4.1,1.6S-353.5,222.6-353.5,222.6z"/>
			<polygon fill="#115106" points="-353.3,223.2 -353.6,221.9 -353.1,222.6 -353.1,223.1 			"/>
		</g>
	</g>
</g>
</svg>
